<?xml version="1.0" standalone="no"?><!DOCTYPE svg PUBLIC "-//W3C//DTD SVG 1.1//EN" "http://www.w3.org/Graphics/SVG/1.1/DTD/svg11.dtd"><svg t="1701664914717" class="icon" viewBox="0 0 1024 1024" version="1.1" xmlns="http://www.w3.org/2000/svg" p-id="4306" width="32" height="32" xmlns:xlink="http://www.w3.org/1999/xlink"><path d="M552.30908 1024h-0.219995c-17.179608-0.329992-25.699413-11.059748-31.899272-18.899569-5.609872-7.069839-7.999817-9.559782-13.229698-9.649779h-0.299993c-4.999886 0-7.509829 2.429945-13.249698 9.149791-6.499852 7.599827-15.629643 17.5096-32.589256 17.689596-17.179608-0.329992-25.669414-11.069747-31.889272-18.909568-5.579873-7.069839-7.999817-9.549782-13.1697-9.64978h-0.299993c-4.999886 0-7.489829 2.429945-13.229698 9.139791-6.499852 7.589827-15.439648 17.589599-32.539257 17.689597-17.159608-0.329992-25.669414-11.069747-31.869273-18.919569-5.579873-7.059839-7.999817-9.539782-13.1497-9.63978-5.529874-0.259994-7.649825 2.289948-13.489692 9.129792-6.389854 7.489829-15.119655 17.719596-31.779275 17.719596h-0.759982c-17.159608-0.329992-25.669414-11.069747-31.869273-18.919569-5.579873-7.059839-7.999817-9.539782-13.1497-9.63978h-0.299993c-4.999886 0-7.489829 2.429945-13.229698 9.139792-6.489852 7.609826-14.89966 17.799594-32.549257 17.689596-17.139609-0.329992-25.649415-11.069747-31.859273-18.919568-5.579873-7.049839-7.999817-9.529783-13.1397-9.62978h-0.299993c-4.999886 0-7.46983 2.429945-13.219699 9.139791-6.469852 7.589827-15.669642 17.409603-32.509258 17.689596-17.159608-0.329992-25.669414-11.069747-31.869272-18.909568-5.579873-7.069839-7.999817-9.549782-13.1697-9.64978a12.219721 12.219721 0 0 1-11.999726-12.449716c0.129997-6.739846 4.999886-12.139723 12.449716-11.999726 17.139609 0.329992 25.649415 11.069747 31.859273 18.919568 5.579873 7.059839 7.999817 9.539782 13.1497 9.63978h0.299993c4.949887 0 7.45983-2.429945 13.179699-9.139791 6.499852-7.609826 15.359649-17.919591 32.539257-17.699596s25.689414 11.089747 31.889273 18.889569c5.579873 7.059839 7.999817 9.539782 13.149699 9.63978 5.109883 0.379991 7.669825-2.269948 13.529692-9.139792 6.489852-7.599827 15.159654-17.999589 32.539257-17.689596 17.159608 0.329992 25.669414 11.069747 31.869273 18.919568 5.579873 7.059839 7.999817 9.539782 13.1497 9.63978 5.599872 0.689984 7.679825-2.299948 13.499692-9.139791 6.489852-7.599827 15.999635-17.659597 32.519257-17.699596 17.159608 0.329992 25.669414 11.069747 31.869273 18.919568 5.579873 7.059839 7.999817 9.539782 13.1497 9.63978 5.869866 0.249994 7.679825-2.289948 13.529691-9.139791 6.489852-7.599827 15.78964-17.779594 32.539258-17.689597 17.179608 0.329992 25.669414 11.069747 31.889272 18.909569 5.599872 7.069839 7.999817 9.549782 13.179699 9.649779h0.299993c4.999886 0 7.509829-2.429945 13.249698-9.149791 6.499852-7.599827 15.629643-17.899591 32.589256-17.689596 17.179608 0.329992 25.679414 11.069747 31.899272 18.899569 5.609872 7.079838 7.999817 9.559782 13.219698 9.649779a12.219721 12.219721 0 0 1-0.219995 24.429443zM714.925369 922.822309h-0.219995c-17.179608-0.329992-25.679414-11.059748-31.899272-18.899569-5.609872-7.079838-7.999817-9.559782-13.219698-9.649779-5.67987-0.279994-7.709824 2.299948-13.579691 9.139791-6.499852 7.589827-15.359649 17.689596-32.569256 17.679597-17.179608-0.329992-25.669414-11.069747-31.889272-18.909569-5.579873-7.069839-7.999817-9.549782-13.1697-9.64978h-0.299993c-4.999886 0-7.489829 2.429945-13.229698 9.139792-6.389854 7.489829-15.119655 17.709596-31.779275 17.709596h-0.759983c-17.159608-0.329992-25.669414-11.069747-31.869272-18.919569-5.579873-7.059839-7.999817-9.539782-13.1497-9.63978H487.000571c-4.949887 0-7.46983 2.429945-13.199699 9.139792-6.389854 7.489829-15.109655 17.709596-31.759275 17.709596h-0.759983c-17.159608-0.329992-25.669414-11.069747-31.869273-18.909569-5.579873-7.069839-7.999817-9.549782-13.169699-9.64978-4.999886-0.609986-7.669825 2.299948-13.519692 9.139792-6.489852 7.599827-15.999635 17.609598-32.539257 17.699596-17.159608-0.329992-25.669414-11.069747-31.869273-18.919568-5.579873-7.059839-7.999817-9.539782-13.1397-9.63978h-0.299993c-4.949887 0-7.46983 2.429945-13.199699 9.139791-6.409854 7.489829-15.119655 17.709596-31.779274 17.709596h-0.759983c-17.159608-0.329992-25.649415-11.069747-31.859273-18.909569-5.579873-7.069839-7.999817-9.549782-13.1497-9.649779a12.219721 12.219721 0 0 1 0.219995-24.429443h0.219995c17.159608 0.329992 25.669414 11.069747 31.869273 18.919568 5.579873 7.059839 7.999817 9.539782 13.1397 9.63978h0.299993c4.949887 0 7.46983-2.429945 13.199699-9.139791 6.499852-7.609826 15.459647-18.159586 32.539257-17.699596s25.649415 11.069747 31.859273 18.909568c5.579873 7.069839 7.999817 9.549782 13.1497 9.64978h0.299993c4.999886 0 7.489829-2.429945 13.229698-9.139791 6.469852-7.609826 15.249652-17.759595 32.539258-17.699596 17.159608 0.329992 25.669414 11.069747 31.869272 18.919568 5.579873 7.059839 7.999817 9.539782 13.1497 9.63978h0.299993c4.949887 0 7.46983-2.429945 13.199699-9.139791 6.489852-7.609826 15.059656-17.909591 32.519258-17.699597 17.159608 0.329992 25.669414 11.069747 31.869273 18.909569 5.579873 7.069839 7.999817 9.549782 13.169699 9.64978 5.069884 0.279994 7.669825-2.299948 13.519691-9.139792 6.489852-7.609826 14.839661-17.999589 32.539258-17.699596 17.179608 0.329992 25.669414 11.069747 31.889272 18.909569 5.579873 7.069839 7.999817 9.549782 13.169699 9.649779h0.299994c4.999886 0 7.519828-2.429945 13.279697-9.149791 6.489852-7.599827 15.869638-17.719596 32.569256-17.679596 17.179608 0.329992 25.679414 11.059748 31.899272 18.899568 5.609872 7.079838 7.999817 9.559782 13.219699 9.64978a12.219721 12.219721 0 0 1-0.219995 24.429443zM849.992286 918.092417c-21.529509 0-32.939248-9.169791-42.109039-16.539622-8.059816-6.479852-13.879683-11.159745-26.809388-11.159746a12.209721 12.209721 0 0 1 0-24.429442c21.529509 0 32.939248 9.169791 42.109039 16.539622 8.059816 6.479852 13.879683 11.159745 26.809388 11.159746s18.769572-4.679893 26.829388-11.159746c9.169791-7.369832 20.559531-16.499623 42.099039-16.499623a12.209721 12.209721 0 1 1 0 24.429442c-12.929705 0-18.749572 4.679893-26.809388 11.159746-9.17979 7.319833-20.59953 16.499623-42.119039 16.499623zM724.165158 825.284535c-1.379969 0-2.769937 0-4.179905-0.149996-22.949476-1.609963-42.999019-15.599644-50.128856-27.999361a126.827106 126.827106 0 0 1-6.249857-13.379695c-17.809594 14.669665-43.309012 32.43926-62.308578 32.549257-22.309491 0.42999-48.698889-16.279628-52.118811-46.89893-4.209904-37.919135 24.749435-61.558595 43.928998-77.208238 6.899843-5.639871 13.99968-11.459738 16.479624-15.369649C630.667292 643.008695 632.327254 600.619662 613.997672 563.510509c-20.179539-40.849068-83.218101-112.197439-278.783637-131.087008-3.179927-0.069998-102.717656-3.319924-136.996874-13.379695-17.839593-5.25988-58.298669-28.309354-68.288441-48.698888-9.129792-18.649574-6.199859-32.829251-2.149951-41.439054 7.079838-15.059656 23.299468-25.729413 48.1989-31.709277 19.129563-4.599895 40.939066-36.049177 50.188854-54.808749a16.289628 16.289628 0 0 1 29.229333 14.379672c-3.119929 6.359855-31.699277 62.468574-71.818361 72.098355-20.14954 4.83989-25.129426 11.349741-26.339399 13.919682-1.839958 3.899911 0 9.369786 1.939956 13.259697 3.93991 8.059816 33.239241 27.349376 48.2189 31.759275 25.129426 7.399831 102.237667 11.279743 129.837037 12.139723C549.589142 420.403775 619.997535 502.16191 643.187006 549.090839c23.359467 47.288921 21.139518 101.497684-5.999863 144.99669-5.27988 8.499806-14.139677 15.729641-23.519463 23.389467-20.14954 16.439625-34.239219 29.529326-32.139267 48.368896 1.649962 14.929659 15.739641 17.939591 19.509555 17.93959 9.809776-0.059999 38.419123-20.829525 57.998676-39.4391l17.999589-17.129609 8.539806 23.319468c3.639917 9.999772 9.909774 25.999407 12.419716 30.289309 1.839958 3.159928 12.309719 10.999749 24.249447 11.81973 8.139814 0.579987 14.219675-2.219949 19.339558-8.729801 9.759777-12.439716-5.219881-39.519098-18.449579-63.418552-15.269652-27.59937-29.709322-53.668775-17.559599-75.138286 86.898017-153.726492 86.818019-282.463554-0.219995-382.641267-7.759823-8.929796-13.369695-15.389649-10.339764-25.159426 4.79989-15.509646 20.819525-14.579667 32.549257-13.99968 13.309696 0.719984 33.539235 1.869957 57.888679-7.639826 17.999589-6.99984 28.829342-15.479647 28.369353-22.089496-0.999977-14.999658-36.36917-37.22915-51.998814-40.999064a155.666447 155.666447 0 0 0-32.459259-3.759914c-7.46983-0.169996-14.999658 0-22.499486 0.399991-6.429853 0.319993-12.849707 0.769982-19.209562 1.279971L659.996622 153.019878c-3.369923 0.279994-7.219835 0.519988-10.579758 0.699984-18.239584 0.999977-39.309103 1.079975-57.208695-5.419877C408.002373 81.241516 311.474576 172.939423 278.505329 215.468453a16.279628 16.279628 0 1 1-25.729413-19.999544c29.119335-37.579142 140.446795-154.306478 350.571999-77.788225 12.479715 4.529897 30.259309 4.249903 44.368988 3.50992 3.04993-0.159996 6.549851-0.389991 9.61978-0.639985l27.799366-2.21995c6.679848-0.519988 13.419694-0.999977 20.179539-1.339969 8.31981-0.409991 16.66962-0.589987 24.839433-0.409991a187.185728 187.185728 0 0 1 39.269104 4.629895c15.519646 3.709915 74.168307 30.699299 76.928244 70.378394 1.589964 22.999475-14.89966 41.359056-48.998881 54.688751a150.596563 150.596563 0 0 1-54.838749 10.349764c84.428073 109.197508 81.588138 245.244403-8.569804 404.730763-3.159928 5.609872 10.93975 31.079291 17.719595 43.339011 17.219607 31.12929 38.679117 69.878405 15.549645 99.297734-10.849752 13.839684-25.999407 21.289514-43.049017 21.289514z" p-id="4307"></path><path d="M376.643089 304.356424a19.71955 19.71955 0 1 1 19.71955-19.70955 19.72955 19.72955 0 0 1-19.71955 19.70955z m0-27.219379a7.499829 7.499829 0 1 0 7.509829 7.509829 7.499829 7.499829 0 0 0-7.509829-7.509829zM753.104497 405.844108a6.109861 6.109861 0 0 1-6.10986-6.109861c0-43.699003-36.999156-99.247735-37.359147-99.807722a6.109861 6.109861 0 0 1 10.149768-6.809845c1.609963 2.389945 39.4291 59.228648 39.4291 106.617567a6.109861 6.109861 0 0 1-6.109861 6.109861zM755.994431 447.343161a6.109861 6.109861 0 0 1-6.10986-6.109861v-18.549577a6.109861 6.109861 0 1 1 12.209721 0v18.549577a6.109861 6.109861 0 0 1-6.099861 6.109861zM793.093585 194.598929a6.109861 6.109861 0 0 1-5.25988-2.999932c-7.139837-12.149723-26.889386-17.839593-27.099382-17.899591-36.589165-8.529805-103.717633 0.089998-104.387617 0.179996a6.059862 6.059862 0 0 1-6.849844-5.25988 6.12986 6.12986 0 0 1 5.25988-6.849844c2.859935-0.369992 69.998402-8.999795 108.997512 0.109998 1.259971 0.339992 24.919431 7.099838 34.589211 23.539462a6.099861 6.099861 0 0 1-5.25988 9.19979zM380.463002 333.135767a36.409169 36.409169 0 0 1-18.459579-4.759891 6.109861 6.109861 0 0 1 6.56985-10.309765c0.519988 0.319993 10.999749 6.499852 25.299423-0.339992a6.099861 6.099861 0 1 1 5.24988 10.999749 42.999019 42.999019 0 0 1-18.659574 4.409899zM600.847972 780.845549a6.199859 6.199859 0 0 1-2.999931-0.799981 20.529531 20.529531 0 0 1-10.399763-20.999521c3.06993-21.9195 46.848931-51.398827 51.828817-54.688752a6.109861 6.109861 0 0 1 6.719847 10.189767c-16.999612 11.259743-44.738979 33.75923-46.488939 46.188946a8.419808 8.419808 0 0 0 4.3899 8.699802 6.109861 6.109861 0 0 1-2.999932 11.409739zM54.400443 240.457882c-11.309742 0-22.999475-1.999954-25.999406-3.399922a23.879455 23.879455 0 1 1 19.879546-43.419009c8.999795 4.119906 22.839479 23.459465 28.359353 31.579279l2.579941 3.799913-1.909956 4.169905c-2.539942 5.549873-12.539714 7.269834-22.909478 7.269834z m-16.059633-32.699254a7.589827 7.589827 0 0 0-2.63994 0.47999 7.599827 7.599827 0 0 0-0.519988 13.99968c3.089929 1.419968 12.739709 2.119952 20.60953 1.899957-6.169859-8.069816-11.999726-14.569667-14.299674-15.709642a7.609826 7.609826 0 0 0-3.159928-0.669985zM399.592565 681.747811c-8.729801 0-26.589393-4.559896-32.779252-9.319787a20.999521 20.999521 0 1 1 25.539418-33.289241c6.699847 5.139883 14.309673 23.339467 17.289605 30.919295l1.669962 4.269902-4.82989 6.329856-4.679893 0.999977a17.999589 17.999589 0 0 1-2.20995 0.089998z m-19.999543-30.6593a5.409877 5.409877 0 0 0-0.619986 0 4.679893 4.679893 0 0 0-2.239949 8.379808c1.779959 1.339969 7.239835 3.07993 12.469716 4.339901-2.809936-5.919865-5.469875-10.619758-6.839844-11.849729a4.549896 4.549896 0 0 0-2.759937-0.86998zM856.132146 708.117209l-3.909911-2.389945c-4.199904-2.579941-6.249857-7.249835-4.289902-23.549463 0.589987-4.869889 2.339947-16.819616 5.999863-22.76948a22.749481 22.749481 0 0 1 38.799115 23.779457c-4.879889 7.999817-24.359444 18.619575-32.509258 22.829479z m17.189608-43.289012a6.679848 6.679848 0 0 0-1.529965 0.179996 6.499852 6.499852 0 0 0-3.999909 2.899934c-1.509966 2.469944-3.04993 10.489761-3.829913 17.369603 7.519828-4.479898 13.57969-8.7498 14.889661-10.649757a6.459853 6.459853 0 0 0-5.519874-9.809776zM911.420884 390.014469l-4.209904-1.839958C895.511247 383.014629 899.991145 345.015496 902.491088 339.325626a23.869455 23.869455 0 1 1 43.749002 19.109564c-3.93991 9.069793-22.999475 23.23947-31.059291 28.91934z m12.949705-48.728888a7.719824 7.719824 0 0 0-2.779937 0.529988 7.529828 7.529828 0 0 0-4.179904 3.999909c-1.349969 3.129929-1.829958 12.849707-1.539965 20.639529 7.999817-6.309856 14.359672-12.24972 15.459647-14.569668a7.579827 7.579827 0 0 0-3.92991-9.999772 7.42983 7.42983 0 0 0-3.029931-0.609986zM578.278487 58.762029h-1.129974c-8.699801-0.699984-31.899272-11.82973-38.329125-19.389558a23.869455 23.869455 0 0 1 36.399169-30.959293C581.618411 15.943006 585.998311 39.322473 587.538276 49.022251l0.749983 4.529897-3.49992 2.999931a9.719778 9.719778 0 0 1-6.509852 2.20995zM556.998973 16.282998a7.519828 7.519828 0 0 0-4.899888 1.799959 7.609826 7.609826 0 0 0-0.88998 10.699756c2.229949 2.599941 10.789754 7.239835 17.899592 10.449762-2.17995-9.919774-4.709893-18.269583-6.309856-20.289537a7.559827 7.559827 0 0 0-5.799868-2.65994zM964.719668 483.012347l-3.729915-2.619941c-4.129906-2.909934-5.899865-7.939819-2.719938-24.999429 0.999977-5.139883 3.659916-17.769594 7.919819-23.809457a23.869455 23.869455 0 1 1 38.99911 27.519372c-5.68987 8.089815-27.239378 18.129586-36.259172 22.069497z m20.999521-45.258968a7.599827 7.599827 0 0 0-6.219858 3.199927c-1.999954 2.779937-4.3699 12.219721-5.659871 19.909546 9.079793-4.589895 16.539623-9.109792 18.079587-11.169745a7.579827 7.579827 0 0 0-6.199858-11.939728zM81.669821 635.748861a23.879455 23.879455 0 1 1 0-47.74891c9.889774 0 30.519303 11.81973 38.929112 16.909614l3.92991 2.369946v4.599895c0 12.769709-36.609164 23.869455-42.859022 23.869455z m0-31.469282a7.589827 7.589827 0 1 0 0 15.179654c3.399922 0 12.499715-3.469921 19.529554-6.849844-8.969795-4.749892-16.969613-8.239812-19.539554-8.31981zM318.714411 548.010863c-13.57969 0-34.149221-8.289811-37.799137-11.119746a23.869455 23.869455 0 0 1 29.329331-37.67914c7.809822 6.079861 16.829616 28.089359 20.339535 37.269149l1.649963 4.289902-2.829936 3.629918c-2.039953 2.60994-5.939864 3.609918-10.689756 3.609917z m-23.119472-37.549143a7.579827 7.579827 0 0 0-4.669894 13.549691c2.669939 2.089952 11.999726 4.949887 19.589553 6.599849-4.149905-9.279788-8.31981-16.949613-10.309764-18.589575a7.509829 7.509829 0 0 0-4.619895-1.589964zM511.000023 839.804204c-13.549691 0-34.999201-9.709778-38.649118-12.819708a23.869455 23.869455 0 1 1 30.999292-36.329171c7.539828 6.419853 15.569645 28.789343 18.669574 38.11913l1.449967 4.359901-2.999931 3.48992c-1.919956 2.279948-5.319879 3.179927-9.469784 3.179928z m-23.139472-38.56912a7.579827 7.579827 0 0 0-4.949887 13.359695c2.589941 2.20995 11.769731 5.479875 19.319559 7.45983-3.739915-9.449784-7.569827-17.289605-9.479784-18.999567a7.519828 7.519828 0 0 0-4.879888-1.809958zM483.880642 696.377477l-1.889957-0.489989c-6.56985-1.689961-17.999589-5.129883-20.999521-9.159791-3.999909-5.379877-1.999954-13.409694 4.529897-18.279583s14.839661-4.479898 18.80957 0.869981c2.259948 2.999932 3.149928 9.399785 3.469921 12.929705 0.999977 10.49976-1.269971 12.169722-2.339946 12.999703z m-8.639803-23.169471a8.479806 8.479806 0 0 0-4.879889 1.779959c-2.939933 2.18995-3.93991 5.439876-2.879934 6.879843 0.999977 1.059976 6.379854 3.189927 12.399717 4.999886 0-4.209904-0.999977-10.999749-2.119952-12.67971a3.089929 3.089929 0 0 0-2.519942-0.979978zM962.139727 734.436608c-5.999863 0-21.059519-3.999909-22.299491-9.479783l-0.42999-1.899957 1.209972-1.529965c4.149905-5.25988 11.82973-14.229675 16.679619-15.33965a11.059748 11.059748 0 0 1 9.559782 2.589941 16.949613 16.949613 0 0 1 4.339901 18.999566 10.999749 10.999749 0 0 1-7.489829 6.489852 7.339832 7.339832 0 0 1-1.569964 0.169996z m-12.389717-11.199744c3.829913 1.649962 10.349764 3.449921 12.169722 3.119929a2.999932 2.999932 0 0 0 1.839958-1.849958 8.899797 8.899797 0 0 0-2.159951-9.499783 3.149928 3.149928 0 0 0-2.479943-0.86998c-1.349969 0.499989-5.359878 4.429899-9.369786 9.099792z" p-id="4308"></path></svg>